<?xml version="1.0" encoding="utf-8"?>
<!-- Generator: Adobe Illustrator 23.0.1, SVG Export Plug-In . SVG Version: 6.00 Build 0)  -->
<svg version="1.1" xmlns="http://www.w3.org/2000/svg" xmlns:xlink="http://www.w3.org/1999/xlink" x="0px" y="0px"
	 viewBox="0 0 1080 720" style="enable-background:new 0 0 1080 720;" xml:space="preserve">
<style type="text/css">
	.st0{display:none;}
	.st1{fill:#D1E0FD;}
	.st2{fill:#FFFFFF;}
	.st3{fill:none;stroke:#D1E0FD;stroke-width:4;stroke-miterlimit:10;}
	.st4{fill:none;stroke:#D1E0FD;stroke-width:5;stroke-miterlimit:10;}
	.st5{fill:#A4C4FA;}
	.st6{fill:#4B86F7;}
</style>
<g id="Layer_1" class="st0">
	
		<image style="overflow:visible;" width="1300" height="1300" xlink:href="BFEB57C3.jpg"  transform="matrix(3.1435 0 0 3.1435 124.7143 -863.9286)">
	</image>
	
		<image style="display:inline;overflow:visible;" width="251" height="505" xlink:href="BFEB57C1.jpg"  transform="matrix(1 0 0 1 1157.1428 72.7143)">
	</image>
</g>
<g id="Layer_7">
	<path class="st1" d="M697.84,166.8c0,0-17.59,39.14-106.76,14.27S547.11,42,396.64,126.84s18.43,206.69-71.85,257.6
		S77.4,488.96,65.83,530.45c-11.57,41.49,415.94,186.09,434.08,121.07s77.21-43.54,165.91-93.54c88.7-50.01,115.69,89.5,183.6,51.21
		c67.91-38.29,191.66-132.04,48-172.11S722.61,272.86,785,237.68S768.53,96.27,693.46,75.33S712,116.02,697.84,166.8z"/>
</g>
<g id="Layer_6">
	<g id="Layer_5">
		<polygon class="st2" points="870.86,387.93 870.86,355.14 858.64,355.14 858.64,337.89 706.29,337.89 706.29,355.14 
			693.43,355.14 693.43,387.93 684.86,387.93 684.86,327.71 591.43,327.71 591.43,154.77 597.43,153.09 591.43,43.64 591.43,36.09 
			448.06,153.09 438.43,153.09 438.43,327.71 438.43,348.07 438.43,374.86 414.43,374.86 414.43,276.71 135.75,276.71 135.75,717.1 
			364.71,717.1 364.71,723 678.86,723 912,723 912,387.93 		"/>
	</g>
	<g id="Layer_4">
		<polyline class="st3" points="415.39,371.86 415.39,277.68 135.75,277.68 135.75,720 135.75,277.68 		"/>
		<rect x="164.68" y="311.43" class="st1" width="216.96" height="36.64"/>
		<rect x="164.68" y="369.61" class="st1" width="200.04" height="36.64"/>
		<rect x="164.68" y="427.79" class="st1" width="197.04" height="36.64"/>
		<rect x="164.68" y="485.96" class="st1" width="197.04" height="36.64"/>
		<rect x="164.68" y="544.14" class="st1" width="197.04" height="36.64"/>
		<polygon class="st1" points="307.39,717 237,717 235.55,608.16 305.95,608.16 		"/>
		<rect x="337.29" y="608.16" class="st1" width="24.43" height="87.68"/>
		<rect x="164.68" y="608.16" class="st1" width="40.5" height="87.68"/>
		<path class="st1" d="M93.54,608.06c-28.64,0-44.96,98.64,0,98.64S122.18,608.06,93.54,608.06z"/>
		<line class="st4" x1="93.54" y1="674.92" x2="93.54" y2="717.1"/>
		<path class="st1" d="M965.28,608.06c-28.64,0-44.96,98.64,0,98.64S993.92,608.06,965.28,608.06z"/>
		<line class="st4" x1="965.28" y1="674.92" x2="965.28" y2="717.1"/>
		<polyline class="st3" points="682.5,387.93 693.43,387.93 912,387.93 912,720 		"/>
		<polyline class="st3" points="693.43,387.93 693.43,355.14 870.86,355.14 870.86,384.71 		"/>
		<polyline class="st3" points="706.29,355.14 706.29,337.89 858.64,337.89 858.64,355.14 		"/>
		<line class="st3" x1="682.5" y1="441.29" x2="912" y2="441.29"/>
		<rect x="782.46" y="617.21" class="st3" width="57.21" height="102.79"/>
		<line class="st3" x1="769.5" y1="617.21" x2="782.46" y2="617.21"/>
		<rect x="831" y="473.43" class="st1" width="52.29" height="117.43"/>
		<rect x="678.86" y="473.29" class="st1" width="52.29" height="117.43"/>
		<polygon class="st1" points="753.86,473.43 753.86,584.39 769.5,584.39 769.5,590.86 806.14,590.86 806.14,473.43 		"/>
	</g>
	<g id="Layer_3">
		<polyline class="st5" points="678.86,333.71 547.71,348.07 547.71,327.71 678.86,333.71 		"/>
		<polyline class="st5" points="769.5,587 603.21,605.2 603.21,584.39 769.5,587 		"/>
		<polyline class="st5" points="553.71,699 444.43,717 553.71,717 553.71,690.71 		"/>
		<path class="st5" d="M401.57,294.07c0,0,1.5-27,42.86-26.04c41.36,0.96,0,0,0,0v65.68H321.86
			C321.86,333.71,349.18,266.11,401.57,294.07z"/>
		<path class="st5" d="M755.76,209.67c-11.84,0-23.04,2.06-33.02,5.73c-9.82-18.07-25.19-29.72-42.46-29.72
			c-29.66,0-53.71,34.28-53.71,76.57H831C828.06,232.84,795.51,209.67,755.76,209.67z"/>
		<polyline class="st5" points="438.43,374.65 361.29,383.09 361.29,373.44 438.43,374.65 		"/>
		<polyline class="st5" points="438.43,418.42 361.29,426.87 361.29,417.21 438.43,418.42 		"/>
	</g>
	<g id="Layer_2">
		<g>
			<g>
				<path class="st6" d="M358.82,368.86h-0.11V717H86.79l-5,6h906.43l5-6H771V581h-86.14V327.71h-87.43V31.5l-43.71,33.43v0
					l-26.56,20.31l-88.72,67.85v215.77 M765,587v130H609V587 M678.86,581h-20.14v-28.86h-32.14V581H603v44.21h-30.43v32.14H603V717
					h-49.29V333.71h125.14V581z M526.31,93.44l21.4-16.37V717h-46.73V112.81L526.31,93.44z M591.43,43.64v284.07h-37.71V72.48
					L591.43,43.64z M494.98,117.4V717h-50.55V156.05L494.98,117.4z M438.43,374.86v38.36h-73.71v-38.36H438.43z M364.71,641.29h31.5
					v-32.14h-31.5V492.71h31.5v-32.14h-31.5v-41.36h73.71v95.71H406.5v32.14h31.93V717h-73.71V641.29z"/>
				<rect x="572.57" y="371.86" class="st6" width="32.14" height="32.14"/>
				<rect x="626.57" y="437.43" class="st6" width="32.14" height="32.14"/>
				<rect x="572.57" y="498.86" class="st6" width="32.14" height="32.14"/>
				<rect x="630.43" y="605.21" class="st6" width="32.14" height="32.14"/>
				<rect x="670.29" y="666.86" class="st6" width="32.14" height="32.14"/>
				<rect x="708.86" y="605.21" class="st6" width="32.14" height="32.14"/>
			</g>
		</g>
	</g>
</g>
</svg>
