<?xml version="1.0" encoding="utf-8"?>
<!-- Generator: Adobe Illustrator 23.0.1, SVG Export Plug-In . SVG Version: 6.00 Build 0)  -->
<svg version="1.1" xmlns="http://www.w3.org/2000/svg" xmlns:xlink="http://www.w3.org/1999/xlink" x="0px" y="0px"
	 viewBox="0 0 1080 720" style="enable-background:new 0 0 1080 720;" xml:space="preserve">
<style type="text/css">
	.st0{fill:#D1E0FD;}
	.st1{fill:#FFFFFF;}
	.st2{fill:#A4C4FA;}
	.st3{fill:#4B86F7;}
</style>
<g id="Layer_3_1_">
</g>
<g id="Layer_6_1_">
	<path class="st0" d="M611,243.58c0,0,9.64,60.6-75.21,60.6s-262.29-99.44-262.29,0s-38.57,125.86-156.21,125.86
		s-113.79,164.7,0,164.7s137.89,111.09,137.89,111.09h546.75c0,0-0.96-96.72,120.05-96.72s106.55-149.55,0-149.55
		c-106.55,0-70.88-99.44,0-99.44s-42.43-193.06-141.03-113.62s-108.72,0.58-54-43.51c54.72-44.09-357.15-66.91-274.1,0
		S539.64,186.09,611,243.58z"/>
</g>
<g id="Layer_8">
	<g id="Layer_1">
		<polyline class="st1" points="937.96,720 937.96,261.21 911.08,261.21 911.08,229.54 860.82,229.54 860.82,261.21 840.57,265.21 
			836.57,386.71 790.43,386.71 788.37,429.14 717.71,429.14 714.21,333 691.07,329.37 687.3,301.4 665.18,297.71 637.88,295.71 
			616.07,322.46 622.21,218.42 482.79,119.54 482.79,295.71 414.64,291.21 414.64,459.11 398.89,461.75 394.89,226.64 
			367.93,222.42 367.93,164.93 268.61,160.93 268.61,224.57 240.64,229.54 240.64,435.75 171.21,440.46 171.21,476.64 
			157.71,482.84 159.71,660.21 157.71,720 937.96,720 		"/>
	</g>
	<g id="Layer_7_2_">
	</g>
	<g id="Layer_5_1_">
		<image style="overflow:visible;" width="1366" height="768" xlink:href="F06BECFF.jpg"  transform="matrix(1 0 0 1 -7652 -7832)">
		</image>
		<image style="overflow:visible;" width="1366" height="768" xlink:href="F06BECFD.jpg"  transform="matrix(1 0 0 1 -7652 -7832)">
		</image>
		<g>
			<path class="st0" d="M371.93,160.93H268.61v63.64h-27.96v211.18h-69.43v40.89h-13.5v170.12c-4.06-20.17-13.91-37.56-25.93-37.56
				c-28.09,0-44.32,94.9-2.5,98.52v10.52h5v-10.52c12.83-1.11,20.2-10.81,23.43-23.72V720h4V480.64h9.5h73.43h102.14v-4h-10.14
				V458.2h-33.75v18.43h-23.53V263.21h-4v213.42h-30.71v-38.89v-2V228.57h27.96v-63.64h95.32v61.71h26.96v235.1h4v-239.1h-26.96
				V160.93z M175.21,476.64v-36.89h65.43v36.89H175.21z"/>
			<rect x="358.29" y="263.21" class="st0" width="4" height="211.63"/>
			<rect x="302.43" y="263.21" class="st0" width="33.75" height="20.25"/>
			<rect x="302.43" y="302.21" class="st0" width="33.75" height="20.25"/>
			<rect x="302.89" y="341.21" class="st0" width="33.75" height="20.25"/>
			<rect x="302.89" y="380.21" class="st0" width="33.75" height="20.25"/>
			<rect x="302.89" y="419.21" class="st0" width="33.75" height="20.25"/>
			<rect x="302.43" y="198.32" class="st0" width="34.21" height="48.2"/>
			<polygon class="st0" points="240.64,716.83 244.64,716.83 244.64,515.86 299.54,515.86 299.54,511.86 240.64,511.86 			"/>
			<rect x="271.09" y="556.75" class="st0" width="28.45" height="4"/>
			<rect x="271.09" y="597.32" class="st0" width="28.45" height="4"/>
			<rect x="271.09" y="637.37" class="st0" width="28.45" height="4"/>
			<rect x="271.09" y="672" class="st0" width="28.45" height="4"/>
			<path class="st0" d="M182.14,670.64h22V511.86h-22V670.64z M186.14,515.86h14v150.78h-14V515.86z"/>
			<path class="st0" d="M211.39,670.64h22V511.86h-22V670.64z M215.39,515.86h14v150.78h-14V515.86z"/>
			<path class="st0" d="M915.08,261.21v-35.68h-58.26v35.68h-20.25v121.5h-50.14v42.43h-68.71v4h118.86V720h4V265.21h93.39V720h4
				V261.21H915.08z M790.43,425.14v-38.43h46.14v38.43H790.43z M860.82,229.54h50.26v31.68h-50.26V229.54z"/>
			<path class="st0" d="M860.94,349.86h54.14v-54.14h-54.14V349.86z M864.94,299.71h46.14v46.14h-46.14V299.71z"/>
			<path class="st0" d="M860.94,353.96v54.14h25.21v-54.14H860.94z M882.15,404.1h-17.21v-46.14h17.21V404.1z"/>
			<path class="st0" d="M889.87,408.1h25.21v-54.14h-25.21V408.1z M893.87,357.96h17.21v46.14h-17.21V357.96z"/>
			<path class="st0" d="M860.94,466.28h54.14v-54.14h-54.14V466.28z M864.94,416.13h46.14v46.14h-46.14V416.13z"/>
			<path class="st0" d="M860.94,470.38v54.14h25.21v-54.14H860.94z M882.15,520.52h-17.21v-46.14h17.21V520.52z"/>
			<path class="st0" d="M889.87,524.52h25.21v-54.14h-25.21V524.52z M893.87,474.38h17.21v46.14h-17.21V474.38z"/>
			<path class="st0" d="M860.94,582.7h54.14v-54.14h-54.14V582.7z M864.94,532.55h46.14v46.14h-46.14V532.55z"/>
			<path class="st0" d="M889.87,622.72c-1.17-1.86-2.41-3.54-3.71-5.01V586.8h-25.21v30.91c-19.24,21.78-24.89,88.7,10.11,91.73
				v10.52h5v-10.52c7.79-0.68,13.58-4.51,17.64-10.32h21.4v-54.14h-16.38c-0.33-1.36-0.68-2.71-1.05-4.03h17.43V586.8h-25.21V622.72
				z M882.15,590.8V614c-2.69-1.97-5.58-3.08-8.61-3.08c-3.03,0-5.91,1.11-8.61,3.08v-23.2H882.15z M911.08,648.97v46.14h-15.03
				c6.13-12.12,6.69-29.98,3.52-46.14H911.08z M911.08,590.8v46.14h-14.67c-0.77-2.3-1.62-4.52-2.54-6.61V590.8H911.08z"/>
			<rect x="816.32" y="458.2" class="st0" width="4" height="261.8"/>
			<rect x="786.37" y="458.2" class="st0" width="4" height="102.99"/>
			<rect x="758.46" y="458.2" class="st0" width="4" height="49.26"/>
			<rect x="731.46" y="458.2" class="st0" width="4" height="49.26"/>
		</g>
	</g>
	<g id="Layer_4_1_">
		<polyline class="st2" points="538,297.71 415.29,323.87 416.14,297.71 538,297.71 		"/>
		<polyline class="st2" points="714.29,406.21 616.07,427.14 616.75,406.21 714.29,406.21 		"/>
		<polyline class="st2" points="795.29,682.03 668.21,709.12 669.1,682.03 795.29,682.03 		"/>
		<polyline class="st2" points="302.43,716.83 418.14,692.16 417.33,716.83 302.43,716.83 		"/>
		<polyline class="st2" points="420.36,665.44 540.14,639.91 539.31,665.44 420.36,665.44 		"/>
		<polyline class="st2" points="418.32,513.86 538.11,488.33 537.27,513.86 418.32,513.86 		"/>
		<polyline class="st2" points="622.71,659.2 668.21,649.5 667.9,659.2 622.71,659.2 		"/>
		<polyline class="st2" points="795.29,562.64 668.21,589.73 669.1,562.64 795.29,562.64 		"/>
		<path class="st2" d="M822.26,200.53c-11.84,0-23.04,2.06-33.02,5.73c-9.82-18.07-25.19-29.72-42.46-29.72
			c-29.66,0-53.71,34.28-53.71,76.57H897.5C894.56,223.7,862.01,200.53,822.26,200.53z"/>
		<path class="st2" d="M288.9,370.42c-11.84,0-23.04,2.06-33.02,5.73c-9.82-18.07-25.19-29.72-42.46-29.72
			c-29.66,0-53.71,34.28-53.71,76.57h204.43C361.2,393.59,328.65,370.42,288.9,370.42z"/>
	</g>
	<g id="Layer_2">
		<path class="st3" d="M802.21,716.5V555.25h-19.97c5.74-22.57-9.34-50.33-10.03-51.58l-1-1.81h-50V326h-23.28
			c-0.47-5.57-2.46-16.41-10.63-24.6c-6.77-6.79-16.21-10.22-28.07-10.21v-92.86h-7v93.27c-15.77,1.89-24.83,10.06-30.02,18.78
			v-91.96L489.79,116.84V86.43h-7v204.79h-68.14v160.46l-118.61,42.43V716.5H108.29v7h556.43h137.5h203.5v-7H802.21z M664.71,660.21
			h-42.5V538h66.96c-0.27,7.25,0.45,13.38,1.11,17.25h-25.57v67.61V660.21z M671.71,629.86h123.5v44.5h-123.5V629.86z
			 M795.21,622.86h-123.5v-60.61h123.5V622.86z M774.96,555.25H697.4c-1.33-7.22-3.87-28.15,6.84-46.39h62.76
			C770.24,515.37,780.44,538.15,774.96,555.25z M700.37,501.86l-1.03,1.62c-5.8,9.11-8.51,18.8-9.6,27.52h-67.52V405.65h92v96.21
			H700.37z M657.4,298.21c10.79-0.36,19.17,2.36,24.9,8.08c9.09,9.07,8.77,22.94,8.77,23.07l-0.13,3.62h23.27v65.65h-92v-64.08
			C622.21,333.13,622.61,299.37,657.4,298.21z M489.79,125.67l125.43,96.2V716.5h-40.57V236.61h-7V716.5H543.5V291.21h-53.71V125.67
			z M536.5,665.14H421.64v-44.36H536.5V665.14z M421.64,468.51H536.5v44.36H421.64V468.51z M536.5,613.78H421.64v-43.46H536.5
			V613.78z M421.64,563.32v-43.46H536.5v43.46H421.64z M536.5,410.15H421.64v-44.36H536.5V410.15z M536.5,417.15v44.36H421.64
			v-44.36H536.5z M421.64,672.14H536.5v44.36H421.64V672.14z M536.5,298.21v60.57H421.64v-60.57H536.5z M303.04,499.04l111.61-39.92
			V716.5h-29.11v-182h-7v182h-28.25v-182h-7v182h-40.25V499.04z M622.21,716.5v-49.29h42.5v14.14v35.14H622.21z M671.71,716.5
			v-35.14h123.5v35.14H671.71z"/>
	</g>
</g>
</svg>
