<?xml version="1.0" encoding="utf-8"?>
<!-- Generator: Adobe Illustrator 23.0.1, SVG Export Plug-In . SVG Version: 6.00 Build 0)  -->
<svg version="1.1" id="Layer_1" xmlns="http://www.w3.org/2000/svg" xmlns:xlink="http://www.w3.org/1999/xlink" x="0px" y="0px"
	 viewBox="0 0 500 500" style="enable-background:new 0 0 500 500;" xml:space="preserve">
<style type="text/css">
	.st0{fill:#F9F9F9;}
	.st1{fill:#31A1E1;}
</style>
<rect class="st0" width="500" height="500"/>
<g>
	<path class="st1" d="M202.35,266.46c-3.09,0-4.73,2.32-4.9,6.96l-0.02,1.88c0,2.51,0.42,4.44,1.25,5.78s2.07,2.02,3.71,2.02
		c1.56,0,2.76-0.66,3.6-1.99s1.27-3.23,1.28-5.71v-1.18c0-2.54-0.42-4.47-1.27-5.79S203.94,266.46,202.35,266.46z"/>
	<polygon class="st1" points="275.99,278.03 281.49,278.03 278.73,269.15 	"/>
	<path class="st1" d="M354.84,240.96l-97.82-98.37c-3.87-3.89-10.17-3.89-14.04,0l-97.82,98.37c-1.84,1.85-2.88,4.36-2.88,6.98
		v101.73c0,5.47,4.43,9.9,9.9,9.9H250h97.82c5.47,0,9.9-4.43,9.9-9.9V247.94C357.71,245.33,356.68,242.82,354.84,240.96z
		 M187.98,287.57h-6.13l-9.07-15.93v15.93h-6.17v-25.59h6.17l9.05,15.93v-15.93h6.15V287.57z M213.55,275.3
		c0,2.5-0.46,4.71-1.39,6.63s-2.24,3.4-3.95,4.44s-3.65,1.56-5.83,1.56s-4.11-0.5-5.8-1.5s-3-2.43-3.95-4.3s-1.44-4-1.49-6.42v-1.44
		c0-2.51,0.46-4.72,1.38-6.64s2.24-3.4,3.96-4.44s3.67-1.56,5.86-1.56c2.17,0,4.1,0.52,5.8,1.55s3.02,2.5,3.96,4.4
		s1.42,4.09,1.43,6.55V275.3z M232.27,287.57h-6.15v-25.59h6.15V287.57z M264.2,287.57h-6.19v-5.98l0.6-12.23l-6.19,18.21h-4.08
		l-6.21-18.23l0.6,12.25v5.98h-6.17v-25.59h8.1l5.71,17.81l5.7-17.81h8.12V287.57z M284.46,287.57l-1.49-4.78h-8.46l-1.48,4.78
		h-6.59l9.39-25.59h5.8l9.46,25.59H284.46z M313.54,284.41c-0.95,1.05-2.34,1.9-4.17,2.55s-3.83,0.97-6.01,0.97
		c-3.35,0-6.03-1.03-8.03-3.08s-3.08-4.9-3.22-8.56l-0.02-2.21c0-2.52,0.45-4.72,1.34-6.6s2.17-3.33,3.82-4.34s3.58-1.52,5.76-1.52
		c3.19,0,5.66,0.73,7.43,2.19s2.79,3.64,3.08,6.53h-5.94c-0.21-1.43-0.67-2.45-1.37-3.06s-1.7-0.91-2.99-0.91
		c-1.55,0-2.74,0.66-3.59,1.97s-1.27,3.19-1.28,5.63v1.55c0,2.55,0.44,4.47,1.31,5.76s2.25,1.92,4.12,1.92
		c1.61,0,2.8-0.36,3.59-1.07v-3.97h-4.29v-4.24h10.46V284.41z M334.79,266.74h-11.5v5.4h9.7v4.57h-9.7v6.12h11.46v4.75h-17.63
		v-25.59h17.67V266.74z"/>
</g>
</svg>
